<svg width="14" height="10" viewBox="0 0 14 10" fill="none" xmlns="http://www.w3.org/2000/svg">
<path d="M4.73251 9.01735C4.91251 9.01735 5.08251 8.94735 5.21251 8.80735C5.45251 8.53735 5.43251 8.12735 5.17251 7.88735L2.28136 5.16738H10.35C11.6479 5.16738 12.7 6.21951 12.7 7.51738V9.29705C12.7 9.65604 12.991 9.94705 13.35 9.94705C13.709 9.94705 14 9.65604 14 9.29705V7.51738C14 5.50154 12.3658 3.86738 10.35 3.86738H2.27185L2.27194 3.85187L5.13249 1.43738C5.40249 1.19738 5.41249 0.787379 5.17249 0.517378C4.93249 0.257379 4.52249 0.237379 4.25249 0.477378L0.232501 3.98187C-0.0775003 4.26187 -0.0775003 4.74187 0.232501 5.02187L4.29251 8.84736C4.42251 8.96736 4.57251 9.01735 4.73251 9.01735Z" fill="#505050"/>
</svg>
