<svg width="20" height="20" viewBox="0 0 20 20" fill="none" xmlns="http://www.w3.org/2000/svg">
<g clip-path="url(#clip0_6_330)">
<path d="M10 20C15.5229 20 20 15.5229 20 10C20 4.47708 15.5229 0 10 0C4.47708 0 0 4.47708 0 10C0 15.5229 4.47708 20 10 20Z" fill="#505050"/>
<path d="M5.68761 5.48706V8.88873C6.20552 8.27123 6.82636 7.96039 7.54636 7.96039C7.91719 7.96039 8.24927 8.03123 8.54719 8.17164C8.84594 8.31123 9.06927 8.49039 9.22011 8.70789C9.37177 8.92748 9.47427 9.16789 9.52969 9.43289C9.58469 9.69664 9.61219 10.1071 9.61219 10.6637V14.3008H8.00302V11.025C8.00302 10.375 7.97386 9.96331 7.91261 9.78831C7.85522 9.61688 7.74138 9.46999 7.58969 9.37164C7.43469 9.26706 7.24177 9.21539 7.00886 9.21539C6.74219 9.21539 6.50302 9.28206 6.29511 9.41456C6.08261 9.54789 5.93011 9.74706 5.83344 10.0133C5.73511 10.28 5.68594 10.6737 5.68761 11.195L5.68594 14.3008H4.07886V5.48706H5.68802H5.68761ZM12.0239 5.48706V8.88873C12.5422 8.27123 13.1626 7.96039 13.8822 7.96039C14.2518 7.96039 14.5864 8.03123 14.8847 8.17164C15.1822 8.31123 15.4055 8.49039 15.5555 8.70789C15.7069 8.92602 15.8122 9.17271 15.8651 9.43289C15.9205 9.69664 15.948 10.1071 15.948 10.6637V14.3008H14.3405V11.025C14.3405 10.375 14.3101 9.96331 14.2489 9.78831C14.1915 9.61665 14.0773 9.46968 13.9251 9.37164C13.7718 9.26706 13.5772 9.21539 13.3443 9.21539C13.078 9.21539 12.8389 9.28206 12.6305 9.41456C12.4209 9.54789 12.2676 9.74706 12.1697 10.0133C12.073 10.28 12.0239 10.6737 12.0239 11.195V14.3008H10.4168V5.48706H12.0239Z" fill="white"/>
</g>
<defs>
<clipPath id="clip0_6_330">
<rect width="20" height="20" fill="white"/>
</clipPath>
</defs>
</svg>
