<svg width="20" height="20" viewBox="0 0 20 20" fill="none" xmlns="http://www.w3.org/2000/svg">
<path d="M10 19.3091C15.1413 19.3091 19.3091 15.1413 19.3091 10C19.3091 4.85874 15.1413 0.690918 10 0.690918C4.85874 0.690918 0.690918 4.85874 0.690918 10C0.690918 15.1413 4.85874 19.3091 10 19.3091Z" fill="#505050"/>
<path d="M5.88716 6.58909C5.88716 6.58909 7.36352 8.25818 9.80716 8.53091C9.80716 8.53091 9.6908 7.13455 10.9308 6.35637C10.9308 6.35637 12.2108 5.50182 13.1817 6.74546C13.1817 6.74546 14.1126 6.55273 14.4617 6.32C14.4617 6.32 14.189 6.84728 13.7235 7.30182L14.7708 7.09455L13.7999 8.14182C13.7999 8.14182 14.189 11.6727 10.3272 13.5345C10.3272 13.5345 7.31989 14.6218 5.22534 13.1855C5.22534 13.1855 7.78534 12.7964 8.05807 12.2145C8.05807 12.2145 6.69807 12.0582 6.34898 10.8945L7.08716 10.8545C7.08716 10.8545 5.80716 10.7382 5.6508 8.91273L6.50534 9.02909C6.50898 9.03273 5.14898 8.64728 5.88716 6.58909Z" fill="white"/>
</svg>
